<?xml version="1.0" encoding="UTF-8" standalone="no"?>
<svg width="117.475mm" height="127mm"
 xmlns="http://www.w3.org/2000/svg" xmlns:xlink="http://www.w3.org/1999/xlink"  version="1.2" baseProfile="tiny">
<desc>Created by EvoPdf</desc>
<defs>
</defs>
<g fill="none" stroke="black" stroke-width="1" fill-rule="evenodd" stroke-linecap="square" stroke-linejoin="bevel" >

<g fill="#000000" fill-opacity="1" stroke="#000000" stroke-opacity="1" stroke-width="1" stroke-linecap="square" stroke-linejoin="miter" stroke-miterlimit="2" transform="matrix(1,0,0,1,0,0)"
>
</g>

<g fill="#000000" fill-opacity="1" stroke="#000000" stroke-opacity="1" stroke-width="1" stroke-linecap="square" stroke-linejoin="miter" stroke-miterlimit="2" transform="matrix(1,0,0,1,0,0)"
>
</g>

<g fill="#000000" fill-opacity="1" stroke="#000000" stroke-opacity="1" stroke-width="1" stroke-linecap="square" stroke-linejoin="miter" stroke-miterlimit="2" transform="matrix(1,0,0,1,0,0)"
>
</g>

<g fill="#000000" fill-opacity="1" stroke="#000000" stroke-opacity="1" stroke-width="1" stroke-linecap="square" stroke-linejoin="miter" stroke-miterlimit="2" transform="matrix(1,0,0,1,0,0)"
>
</g>

<g fill="#000000" fill-opacity="1" stroke="#000000" stroke-opacity="1" stroke-width="1" stroke-linecap="square" stroke-linejoin="miter" stroke-miterlimit="2" transform="matrix(1.3939,0,0,1.3939,8,8)"
>
</g>

<g fill="#000000" fill-opacity="1" stroke="#000000" stroke-opacity="1" stroke-width="1" stroke-linecap="square" stroke-linejoin="miter" stroke-miterlimit="2" transform="matrix(8.71187,0,0,8.71187,8.43559,8)"
>
</g>

<g fill="#111111" fill-opacity="1" stroke="none" transform="matrix(8.71187,0,0,8.71187,8.43559,8)"
>
<path vector-effect="none" fill-rule="nonzero" d="M24.95,0 C11.1429,0 -0.0500006,11.1929 -0.0499994,25 C-0.0499979,38.8071 11.1429,50 24.95,50 C38.7571,50 49.95,38.8071 49.95,25 C49.95,11.1929 38.7571,-6.03528e-07 24.95,0 L24.95,0 M24.95,46.91 C12.7997,46.91 2.95,37.0603 2.95,24.91 C2.95,12.7597 12.7997,2.91 24.95,2.91 C37.1003,2.91 46.95,12.7597 46.95,24.91 C46.9445,37.0564 37.0964,46.9 24.95,46.9 L24.95,46.91"/>
</g>

<g fill="#000000" fill-opacity="1" stroke="#000000" stroke-opacity="1" stroke-width="1" stroke-linecap="square" stroke-linejoin="miter" stroke-miterlimit="2" transform="matrix(8.71187,0,0,8.71187,8.43559,8)"
>
</g>

<g fill="#111111" fill-opacity="1" stroke="none" transform="matrix(8.71187,0,0,8.71187,8.43559,8)"
>
<path vector-effect="none" fill-rule="nonzero" d="M24.95,3.65 C13.1863,3.65 3.65,13.1863 3.65,24.95 C3.65001,36.7137 13.1863,46.25 24.95,46.25 C36.7137,46.25 46.25,36.7137 46.25,24.95 C46.2335,13.1932 36.7068,3.66652 24.95,3.65 L24.95,3.65"/>
</g>

<g fill="#000000" fill-opacity="1" stroke="#000000" stroke-opacity="1" stroke-width="1" stroke-linecap="square" stroke-linejoin="miter" stroke-miterlimit="2" transform="matrix(8.71187,0,0,8.71187,8.43559,8)"
>
</g>

<g fill="#000000" fill-opacity="1" stroke="#000000" stroke-opacity="1" stroke-width="1" stroke-linecap="square" stroke-linejoin="miter" stroke-miterlimit="2" transform="matrix(1.3939,0,0,1.3939,8,8)"
>
</g>

<g fill="#000000" fill-opacity="1" stroke="#000000" stroke-opacity="1" stroke-width="1" stroke-linecap="square" stroke-linejoin="miter" stroke-miterlimit="2" transform="matrix(0.238764,0,0,0.238764,124.489,104.164)"
>
</g>

<g fill="#ffffff" fill-opacity="1" stroke="none" transform="matrix(0.238764,0,0,0.238764,124.489,104.164)"
>
<path vector-effect="none" fill-rule="nonzero" d="M423.667,548.833 C416.167,548.333 413.834,539.166 413.834,539.166 C410,526.166 398.667,517 398.667,517 C378.333,498.167 296,447.5 296,447.5 C270.5,436 216,419 216,419 C204,413 201,399 201,399 C206,399.5 227.5,390.5 227.5,390.5 L201,359.5 L227,350 L201,326.5 L230,309 C211,163.5 339,128.5 339,128.5 C339,128.5 329.5,266.5 347,282 C347,282 382.834,254.5 423.667,253 "/>
</g>

<g fill="#000000" fill-opacity="1" stroke="#000000" stroke-opacity="1" stroke-width="1" stroke-linecap="square" stroke-linejoin="miter" stroke-miterlimit="2" transform="matrix(0.238764,0,0,0.238764,124.489,104.164)"
>
</g>

<g fill="#ffffff" fill-opacity="1" stroke="none" transform="matrix(0.238764,0,0,0.238764,124.489,104.164)"
>
<path vector-effect="none" fill-rule="nonzero" d="M423,548.834 C430.5,548.334 432.834,539.166 432.834,539.166 C436.666,526.166 448,517 448,517 C468.334,498.168 550.667,447.5 550.667,447.5 C576.167,436 630.667,419 630.667,419 C642.667,413 645.667,399 645.667,399 C640.667,399.5 619.167,390.5 619.167,390.5 L645.667,359.5 L619.667,350 L645.667,326.5 L616.667,309 C635.667,163.5 507.667,128.5 507.667,128.5 C507.667,128.5 517.167,266.5 499.667,282 C499.667,282 463.833,254.5 423,253 "/>
</g>

<g fill="#000000" fill-opacity="1" stroke="#000000" stroke-opacity="1" stroke-width="1" stroke-linecap="square" stroke-linejoin="miter" stroke-miterlimit="2" transform="matrix(0.238764,0,0,0.238764,124.489,104.164)"
>
</g>

<g fill="#000000" fill-opacity="1" stroke="#000000" stroke-opacity="1" stroke-width="1" stroke-linecap="square" stroke-linejoin="miter" stroke-miterlimit="2" transform="matrix(0.238764,0,0,0.238764,124.489,104.164)"
>
</g>

<g fill="#ffffff" fill-opacity="1" stroke="none" transform="matrix(0.238764,0,0,0.238764,124.489,104.164)"
>
<path vector-effect="none" fill-rule="nonzero" d="M526.875,349 C526.371,348.421 525.237,348.604 524.613,348.719 C521.39,349.317 518.526,351.955 516.473,354.336 C513.285,358.033 510.976,362.629 508.043,366.552 C505.719,369.661 503.036,372.513 500.207,375.167 C493.219,381.725 484.05,386.002 474.292,385.643 C467.469,385.392 460.449,382.03 454.874,378.25 C454.874,378.25 468.999,346.125 515.874,346.25 C515.875,346.25 523.5,345.125 526.875,349 "/>
</g>

<g fill="#000000" fill-opacity="1" stroke="#000000" stroke-opacity="1" stroke-width="1" stroke-linecap="square" stroke-linejoin="miter" stroke-miterlimit="2" transform="matrix(0.238764,0,0,0.238764,124.489,104.164)"
>
</g>

<g fill="#ffffff" fill-opacity="1" stroke="none" transform="matrix(0.238764,0,0,0.238764,124.489,104.164)"
>
<path vector-effect="none" fill-rule="nonzero" d="M331.347,349.455 C331.851,348.876 332.985,349.059 333.609,349.174 C336.832,349.772 339.696,352.41 341.749,354.791 C344.937,358.488 347.246,363.084 350.179,367.007 C352.503,370.116 355.186,372.968 358.015,375.622 C365.003,382.18 374.172,386.457 383.93,386.098 C390.753,385.847 397.773,382.485 403.348,378.705 C403.348,378.705 389.223,346.58 342.348,346.705 C342.347,346.705 334.722,345.58 331.347,349.455 "/>
</g>

<g fill="#000000" fill-opacity="1" stroke="#000000" stroke-opacity="1" stroke-width="1" stroke-linecap="square" stroke-linejoin="miter" stroke-miterlimit="2" transform="matrix(0.238764,0,0,0.238764,124.489,104.164)"
>
</g>

<g fill="#000000" fill-opacity="1" stroke="#000000" stroke-opacity="1" stroke-width="1" stroke-linecap="square" stroke-linejoin="miter" stroke-miterlimit="2" transform="matrix(0.238764,0,0,0.238764,124.489,104.164)"
>
</g>

<g fill="#000000" fill-opacity="1" stroke="#000000" stroke-opacity="1" stroke-width="1" stroke-linecap="square" stroke-linejoin="miter" stroke-miterlimit="2" transform="matrix(1.3939,0,0,1.3939,8,8)"
>
</g>

<g fill="#000000" fill-opacity="1" stroke="#000000" stroke-opacity="1" stroke-width="1" stroke-linecap="square" stroke-linejoin="miter" stroke-miterlimit="2" transform="matrix(1.86562,0,0,1.86562,86.0584,243.01)"
>
</g>

<g fill="#ffffff" fill-opacity="1" stroke="none" transform="matrix(1.86562,0,0,1.86562,86.0584,243.01)"
>
<path vector-effect="none" fill-rule="nonzero" d="M9.28,33.44 L9.44,11.28 L13.28,11.28 L13.04,40.16 L7.08,40.16 L3.84,17.8 L3.84,40.16 L-2.38419e-07,40.16 L-2.38419e-07,11.28 L6.2,11.28 L9.28,33.44 M25.027,24.92 L19.507,24.92 L19.507,36.2 L25.067,36.2 L25.067,40 L15.707,40 L15.707,11.44 L25.067,11.44 L25.067,15.24 L19.507,15.24 L19.507,21.12 L25.027,21.12 L25.027,24.92 M43.174,11.44 L47.014,11.44 L43.294,40 L39.334,40 L37.334,25.68 L35.454,40 L31.494,40 L27.494,11.44 L31.334,11.44 L33.414,26.16 L35.334,11.44 L39.174,11.44 L41.254,26.16 L43.174,11.44 M54.921,40.24 C51.881,40.24 49.441,37.76 49.441,34.76 L49.441,30.4 L53.321,30.4 L53.321,34.76 C53.321,35.64 54.041,36.36 54.921,36.36 C55.801,36.36 56.481,35.64 56.481,34.76 L56.481,30.96 L49.441,21.24 L49.441,16.28 C49.441,13.24 51.881,10.76 54.921,10.76 C57.921,10.76 60.361,13.24 60.361,16.28 L60.361,20.6 L56.481,20.6 L56.481,16.28 C56.481,15.36 55.801,14.68 54.921,14.68 C54.041,14.68 53.321,15.36 53.321,16.28 L53.321,19.92 L60.361,29.64 L60.361,34.76 C60.361,37.76 57.921,40.24 54.921,40.24 M75.015,34 L75.015,39.96 L71.215,39.96 L71.215,11.44 L77.135,11.44 C79.775,11.44 81.895,13.6 81.895,16.24 L81.895,29.24 C81.895,31.88 79.775,34 77.135,34 L75.015,34 L75.015,34 M75.015,15.24 L75.015,30.2 L77.135,30.2 C77.695,30.2 78.095,29.8 78.095,29.24 L78.095,16.24 C78.095,15.68 77.695,15.24 77.135,15.24 L75.015,15.24 L75.015,15.24 M89.722,40.04 C86.722,40.04 84.322,37.6 84.322,34.64 L84.322,16.68 C84.322,13.72 86.722,11.32 89.722,11.32 C92.682,11.32 95.082,13.72 95.082,16.68 L95.082,34.64 C95.082,37.6 92.682,40.04 89.722,40.04 M89.722,15.12 C88.842,15.12 88.162,15.84 88.162,16.68 L88.162,34.64 C88.162,35.52 88.842,36.2 89.722,36.2 C90.562,36.2 91.282,35.52 91.282,34.64 L91.282,16.68 C91.282,15.84 90.562,15.12 89.722,15.12 L89.722,15.12 M108.469,40.08 L104.389,40.08 L102.189,34.04 L101.309,34.04 L101.309,40.08 L97.509,40.08 L97.509,11.44 L103.469,11.44 C106.109,11.44 108.229,13.56 108.229,16.2 L108.229,29.28 C108.229,31 107.349,32.48 105.989,33.32 L108.469,40.08 M101.309,15.24 L101.309,30.24 L103.469,30.24 C103.989,30.24 104.429,29.8 104.429,29.28 L104.429,16.2 C104.429,15.68 103.989,15.24 103.469,15.24 L101.309,15.24 L101.309,15.24 M123.816,11.36 L123.816,15.2 L119.056,15.2 L119.056,40.04 L115.216,40.04 L115.216,15.2 L109.976,15.2 L109.976,11.36 L123.816,11.36 L123.816,11.36 M133.883,40 L132.443,30.12 L128.403,30.12 L127.083,40 L123.243,40 L127.563,11.4 L132.723,11.4 L137.723,40 L133.883,40 M128.923,26.32 L131.883,26.32 L130.363,15.92 L128.923,26.32 M143.91,36.24 L149.43,36.24 L149.43,40 L140.15,40 L140.15,11.28 L143.91,11.28 L143.91,36.24 L143.91,36.24"/>
</g>

<g fill="#000000" fill-opacity="1" stroke="#000000" stroke-opacity="1" stroke-width="1" stroke-linecap="square" stroke-linejoin="miter" stroke-miterlimit="2" transform="matrix(1.86562,0,0,1.86562,86.0584,243.01)"
>
</g>

<g fill="#000000" fill-opacity="1" stroke="#000000" stroke-opacity="1" stroke-width="1" stroke-linecap="square" stroke-linejoin="miter" stroke-miterlimit="2" transform="matrix(1.3939,0,0,1.3939,8,8)"
>
</g>

<g fill="#000000" fill-opacity="1" stroke="#000000" stroke-opacity="1" stroke-width="1" stroke-linecap="square" stroke-linejoin="miter" stroke-miterlimit="2" transform="matrix(1.3939,0,0,1.3939,8,8)"
>
</g>

<g fill="#000000" fill-opacity="1" stroke="#000000" stroke-opacity="1" stroke-width="1" stroke-linecap="square" stroke-linejoin="miter" stroke-miterlimit="2" transform="matrix(1,0,0,1,0,0)"
>
</g>

<g fill="#000000" fill-opacity="1" stroke="#000000" stroke-opacity="1" stroke-width="1" stroke-linecap="square" stroke-linejoin="miter" stroke-miterlimit="2" transform="matrix(1,0,0,1,0,0)"
>
</g>

<g fill="#000000" fill-opacity="1" stroke="#000000" stroke-opacity="1" stroke-width="1" stroke-linecap="square" stroke-linejoin="miter" stroke-miterlimit="2" transform="matrix(1,0,0,1,0,0)"
>
</g>

<g fill="#000000" fill-opacity="1" stroke="#000000" stroke-opacity="1" stroke-width="1" stroke-linecap="square" stroke-linejoin="miter" stroke-miterlimit="2" transform="matrix(1,0,0,1,0,0)"
>
</g>

<g fill="#000000" fill-opacity="1" stroke="#000000" stroke-opacity="1" stroke-width="1" stroke-linecap="square" stroke-linejoin="miter" stroke-miterlimit="2" transform="matrix(1.3939,0,0,1.3939,8,8)"
>
</g>

<g fill="#000000" fill-opacity="1" stroke="#000000" stroke-opacity="1" stroke-width="1" stroke-linecap="square" stroke-linejoin="miter" stroke-miterlimit="2" transform="matrix(1.3939,0,0,1.3939,8,8)"
>
</g>

<g fill="#000000" fill-opacity="1" stroke="#000000" stroke-opacity="1" stroke-width="1" stroke-linecap="square" stroke-linejoin="miter" stroke-miterlimit="2" transform="matrix(0.238764,0,0,0.238764,124.489,104.164)"
>
</g>

<g fill="#000000" fill-opacity="1" stroke="#000000" stroke-opacity="1" stroke-width="1" stroke-linecap="square" stroke-linejoin="miter" stroke-miterlimit="2" transform="matrix(0.238764,0,0,0.238764,124.489,104.164)"
>
</g>

<g fill="#000000" fill-opacity="1" stroke="#000000" stroke-opacity="1" stroke-width="1" stroke-linecap="square" stroke-linejoin="miter" stroke-miterlimit="2" transform="matrix(0.238764,0,0,0.238764,124.489,104.164)"
>
</g>

<g fill="#000000" fill-opacity="1" stroke="#000000" stroke-opacity="1" stroke-width="1" stroke-linecap="square" stroke-linejoin="miter" stroke-miterlimit="2" transform="matrix(1.3939,0,0,1.3939,8,8)"
>
</g>

<g fill="#000000" fill-opacity="1" stroke="#000000" stroke-opacity="1" stroke-width="1" stroke-linecap="square" stroke-linejoin="miter" stroke-miterlimit="2" transform="matrix(1.3939,0,0,1.3939,8,8)"
>
</g>

<g fill="#000000" fill-opacity="1" stroke="#000000" stroke-opacity="1" stroke-width="1" stroke-linecap="square" stroke-linejoin="miter" stroke-miterlimit="2" transform="matrix(1.3939,0,0,1.3939,8,8)"
>
</g>

<g fill="#000000" fill-opacity="1" stroke="#000000" stroke-opacity="1" stroke-width="1" stroke-linecap="square" stroke-linejoin="miter" stroke-miterlimit="2" transform="matrix(1,0,0,1,0,0)"
>
</g>

<g fill="#000000" fill-opacity="1" stroke="#000000" stroke-opacity="1" stroke-width="1" stroke-linecap="square" stroke-linejoin="miter" stroke-miterlimit="2" transform="matrix(1,0,0,1,0,0)"
>
</g>

<g fill="#000000" fill-opacity="1" stroke="#000000" stroke-opacity="1" stroke-width="1" stroke-linecap="square" stroke-linejoin="miter" stroke-miterlimit="2" transform="matrix(1,0,0,1,0,0)"
>
</g>

<g fill="#000000" fill-opacity="1" stroke="#000000" stroke-opacity="1" stroke-width="1" stroke-linecap="square" stroke-linejoin="miter" stroke-miterlimit="2" transform="matrix(1,0,0,1,0,0)"
>
</g>

<g fill="#000000" fill-opacity="1" stroke="#000000" stroke-opacity="1" stroke-width="1" stroke-linecap="square" stroke-linejoin="miter" stroke-miterlimit="2" transform="matrix(1,0,0,1,0,0)"
>
</g>

<g fill="#000000" fill-opacity="1" stroke="#000000" stroke-opacity="1" stroke-width="1" stroke-linecap="square" stroke-linejoin="miter" stroke-miterlimit="2" transform="matrix(1,0,0,1,0,0)"
>
</g>
</g>
</svg>
